<svg version="1.1"
	 xmlns="http://www.w3.org/2000/svg" xmlns:xlink="http://www.w3.org/1999/xlink"
	 x="0px" y="0px" width="301.4px" height="188.4px" viewBox="0 0 301.4 188.4" style="enable-background:new 0 0 301.4 188.4;"
	 xml:space="preserve">
<style type="text/css">
	.st0{fill:#00473E;}
	.st1{fill:#657473;}
	.st2{fill:#F2F7F5;}
	.st3{fill:none;stroke:#FA382A;stroke-width:8;stroke-miterlimit:10;}
	.st4{fill:#F2F7F5;stroke:#FA382A;stroke-width:4;stroke-miterlimit:10;}
	.st5{clip-path:url(#XMLID_95_);}
	.st6{fill:#FA382A;}
	.st7{clip-path:url(#XMLID_96_);}
</style>
	<g id="XMLID_93_">
		<rect id="XMLID_94_" class="st0" width="301.4" height="188.4"/>
	</g>
	<g id="XMLID_57_">
		<path id="XMLID_89_" class="st1" d="M50.4,91.1H31.5c-0.5,0-0.7-0.2-0.7-0.7V58h-1.5c-0.5,0-0.7-0.2-0.7-0.7v-9.5H50
			c4.2,0,7.3,0.9,9.4,2.8s3.1,4.3,3.1,7.1v1.3c0,2.5-0.7,4.5-2.1,6.2c-1.4,1.6-3.3,2.7-5.7,3.2v1.4c2.5,0.4,4.5,1.3,5.9,2.8
			c1.4,1.4,2.2,3.6,2.2,6.4v1.3c0,3.5-1.1,6.1-3.3,8C57.2,90.2,54.2,91.1,50.4,91.1z M46.6,58h-3.3v7.2h3.5c2.3,0,3.4-1,3.4-3.1V61
			c0-0.9-0.2-1.7-0.7-2.2C48.9,58.3,48,58,46.6,58z M43.3,81h3.2c1.3,0,2.2-0.3,2.8-0.8C49.8,79.7,50,79,50,78v-1.4
			c0-1-0.3-1.7-0.8-2.2s-1.5-0.7-2.8-0.7h-3.1V81z"/>
		<path id="XMLID_87_" class="st1" d="M89.4,91.1H75.8c-0.5,0-0.7-0.2-0.7-0.7V77c-0.7-1.8-1.6-3.9-2.6-6.2c-1-2.4-2.1-4.8-3.2-7.5
			c-1.1-2.6-2.2-5.3-3.3-7.9c-1.1-2.6-2.1-5.2-3.1-7.5h13.4c0.6,0,1.1,0.4,1.3,1.1c0.9,3.5,1.7,6.9,2.4,10.1c0.7,3.3,1.2,6.3,1.6,9
			h1.4c0.4-2.9,0.9-6,1.7-9.5c0.7-3.4,1.6-7,2.6-10.8h13c0.9,0,1.1,0.4,0.8,1.3c-1.8,4.5-3.7,9.1-5.8,13.9c-2,4.8-4,9.5-6,14.1V91.1z
			"/>
		<path id="XMLID_83_" class="st1" d="M125.3,91.1h-18.9c-0.5,0-0.7-0.2-0.7-0.7V58h-1.5c-0.5,0-0.7-0.2-0.7-0.7v-9.5h21.3
			c4.2,0,7.3,0.9,9.4,2.8s3.1,4.3,3.1,7.1v1.3c0,2.5-0.7,4.5-2.1,6.2c-1.4,1.6-3.3,2.7-5.7,3.2v1.4c2.5,0.4,4.5,1.3,5.9,2.8
			c1.4,1.4,2.2,3.6,2.2,6.4v1.3c0,3.5-1.1,6.1-3.3,8C132.1,90.2,129.1,91.1,125.3,91.1z M121.5,58h-3.3v7.2h3.5c2.3,0,3.4-1,3.4-3.1
			V61c0-0.9-0.2-1.7-0.7-2.2C123.8,58.3,122.8,58,121.5,58z M118.2,81h3.2c1.3,0,2.2-0.3,2.8-0.8c0.5-0.5,0.8-1.3,0.8-2.3v-1.4
			c0-1-0.3-1.7-0.8-2.2s-1.5-0.7-2.8-0.7h-3.1V81z"/>
		<path id="XMLID_80_" class="st1" d="M152.2,91.1h-11.6c-0.1,0-0.3-0.1-0.4-0.2s-0.2-0.3-0.2-0.6c0.6-2.9,1.3-6.1,2.1-9.8
			c0.8-3.6,1.6-7.4,2.4-11.3c0.8-3.9,1.6-7.7,2.4-11.4c0.8-3.7,1.5-7,2.1-10.1h19.4c0.4,0,0.6,0.2,0.7,0.7c1.2,5.2,2.3,10.7,3.6,16.4
			c1.2,5.7,2.5,11.5,3.7,17.6c0.3,1.4,0.6,2.8,0.9,4.3c0.3,1.4,0.6,2.9,0.9,4.4H167c-0.4,0-0.7-0.1-0.8-0.2c-0.1-0.2-0.3-0.6-0.5-1.4
			c-0.2-1.1-0.5-2.2-0.7-3.3c-0.2-1.1-0.4-2.1-0.6-3.2h-10.6c-0.2,1.3-0.5,2.6-0.8,3.9C152.7,88.4,152.5,89.7,152.2,91.1z
			 M158.4,57.8c-0.3,2.4-0.7,4.9-1.2,7.5c-0.5,2.6-0.9,5.3-1.5,8.1h6.6c-0.5-2.8-1-5.5-1.5-8.1c-0.5-2.6-0.8-5.1-1.2-7.5H158.4z"/>
		<path id="XMLID_78_" class="st1" d="M193.6,91.1h-11.3c-0.5,0-0.7-0.2-0.7-0.7V47.8H192c0.5,0,0.9,0.1,1.2,0.2
			c0.2,0.1,0.6,0.6,1,1.4c2.1,4,4.1,7.7,5.9,11.2c1.8,3.5,3.7,7.2,5.7,11h1.2c-0.7-2.5-1.2-4.6-1.5-6.3c-0.3-1.7-0.5-3.2-0.6-4.6
			c-0.1-1.3-0.2-2.7-0.2-4.2v-8.8h11.7c0.5,0,0.7,0.2,0.7,0.7v42.6h-10c-0.3,0-0.5-0.1-0.8-0.2c-0.2-0.1-0.5-0.6-1-1.3
			c-1.7-2.9-3.1-5.6-4.5-8.1c-1.3-2.5-2.6-4.9-3.9-7.3s-2.5-4.9-3.9-7.5h-1.1c0.6,2.6,1,4.7,1.2,6.4c0.2,1.7,0.4,3.2,0.5,4.5
			c0.1,1.3,0.1,2.5,0.1,3.6V91.1z"/>
		<path id="XMLID_76_" class="st1" d="M223.3,91.1c-0.5,0-0.7-0.2-0.7-0.7v-32h-1.5c-0.5,0-0.7-0.2-0.7-0.7v-10h30.1
			c0.5,0,0.7,0.2,0.7,0.7v10h-16v6.1h11.6c0.5,0,0.7,0.2,0.7,0.7v9h-12.3v6.2h15.3c0.5,0,0.7,0.2,0.7,0.7v10H223.3z"/>
		<path id="XMLID_74_" class="st1" d="M254.9,66.8h21.7c0.5,0,0.7,0.2,0.7,0.7v11h-21.7c-0.5,0-0.7-0.2-0.7-0.7V66.8z"/>
		<path id="XMLID_72_" class="st2" d="M41.8,94.7c3.6,0,6.5,0.4,8.9,1.1c2.3,0.7,3.8,1.4,4.5,2c0.2,0.2,0.4,0.6,0.4,1.1v9.9H45.2
			c-0.4,0-0.6-0.2-0.6-0.7v-2.6c-0.7-0.1-1.6-0.2-2.5-0.2c-1.7,0-3.1,0.2-4.2,0.5c-1.1,0.4-1.6,1.1-1.6,2.3v0.9
			c0,0.7,0.2,1.3,0.6,1.8c0.4,0.5,1.3,0.8,2.8,1.2l6.2,1.5c2.8,0.7,5,1.5,6.6,2.4c1.5,0.9,2.6,2.2,3.2,3.7c0.6,1.5,0.9,3.3,0.9,5.4
			v3.2c0,4.1-1.6,7.2-4.7,9.2s-7.5,3.1-12.9,3.1c-2.3,0-4.4-0.2-6.4-0.5c-2-0.3-3.7-0.7-5.1-1.2s-2.4-1-2.9-1.5
			c-0.2-0.2-0.2-0.4-0.2-0.7v-10.6h1.2c2,1.2,4.1,2,6.3,2.6c2.2,0.6,4.7,0.9,7.6,0.9c2.1,0,3.6-0.2,4.3-0.7s1.1-1.1,1.1-1.7v-1.2
			c0-0.5-0.2-1-0.6-1.5c-0.4-0.5-1.3-0.9-2.8-1.2l-5.7-1.4c-3.3-0.8-5.7-1.7-7.3-2.8c-1.6-1.1-2.7-2.4-3.2-3.9
			c-0.5-1.5-0.7-3.1-0.7-4.8v-2.9c0-2.4,0.7-4.6,2.1-6.5c1.4-1.9,3.4-3.3,6-4.4S38.2,94.7,41.8,94.7z"/>
		<path id="XMLID_70_" class="st2" d="M82.4,139.3H70.5c-0.5,0-0.7-0.2-0.7-0.7v-31.2h-9.7c-0.5,0-0.7-0.2-0.7-0.7V96h32.7
			c0.5,0,0.7,0.2,0.7,0.7v10.8H82.4V139.3z"/>
		<path id="XMLID_67_" class="st2" d="M110.2,139.3H98.3c-0.5,0-0.7-0.2-0.7-0.7V107h-1.5c-0.5,0-0.7-0.2-0.7-0.7V96H115
			c5.1,0,8.8,1.1,11.2,3.4c2.3,2.3,3.5,5.7,3.5,10.1v2.9c0,2.7-0.5,5-1.5,7c-1,2-2.4,3.5-4.2,4.6c0.3,0.5,0.6,1,0.9,1.5
			c0.3,0.5,0.6,1,0.9,1.5c0.3,0.5,0.6,0.8,0.8,1.1c0.3,0.2,0.6,0.3,1,0.3h2.5V139c0,0.5-0.2,0.7-0.7,0.7h-3.5c-1.7,0-3.1-0.1-4.2-0.4
			c-1.1-0.3-2-0.8-2.8-1.5c-0.8-0.8-1.5-1.9-2.3-3.4c-0.7-1.4-1.5-2.8-2.2-4.2c-0.7-1.4-1.4-2.8-2.1-4.1h-2V139.3z M113.1,107h-3v9.2
			h2.8c1.4,0,2.4-0.3,3-0.8s0.8-1.5,0.8-2.9v-2c0-1.3-0.3-2.2-0.9-2.7c-0.3-0.3-0.7-0.5-1.1-0.6C114.2,107,113.7,107,113.1,107z"/>
		<path id="XMLID_65_" class="st2" d="M160,139.3h-24.9c-0.5,0-0.7-0.2-0.7-0.7v-10.8h6.6v-20.4h-5.9c-0.5,0-0.7-0.2-0.7-0.7V96h24.9
			c0.5,0,0.7,0.2,0.7,0.7v10.8h-6.6v20.4h5.9c0.5,0,0.7,0.2,0.7,0.7V139.3z"/>
		<path id="XMLID_62_" class="st2" d="M200.7,124.2c0,4.7-1.3,8.3-3.8,11c-2.6,2.7-6.1,4-10.5,4h-20c-0.5,0-0.7-0.2-0.7-0.7v-31.4
			h-1.5c-0.5,0-0.7-0.2-0.7-0.7V96H186c4.8,0,8.5,1.3,11,4c2.5,2.7,3.8,6.3,3.8,11V124.2z M178.3,128.1h5.8c1.6,0,2.7-0.3,3.2-1.1
			s0.9-1.8,0.9-3.4v-12.3c0-1.6-0.3-2.7-1-3.3c-0.5-0.5-1.5-0.8-2.8-0.8h-6.1V128.1z"/>
		<path id="XMLID_60_" class="st2" d="M206.7,139.3c-0.5,0-0.7-0.2-0.7-0.7v-32h-1.5c-0.5,0-0.7-0.2-0.7-0.7V96H234
			c0.5,0,0.7,0.2,0.7,0.7v10h-16v6.1h11.6c0.5,0,0.7,0.2,0.7,0.7v9h-12.3v6.2H234c0.5,0,0.7,0.2,0.7,0.7v10H206.7z"/>
		<path id="XMLID_58_" class="st2" d="M251.4,139.3h-11.3c-0.5,0-0.7-0.2-0.7-0.7V96h10.3c0.5,0,0.9,0.1,1.2,0.2
			c0.2,0.1,0.6,0.6,1,1.4c2.1,4,4.1,7.7,5.9,11.2c1.8,3.5,3.7,7.2,5.7,11h1.2c-0.7-2.5-1.2-4.6-1.5-6.3c-0.3-1.7-0.5-3.2-0.6-4.6
			c-0.1-1.3-0.2-2.7-0.2-4.2V96H274c0.5,0,0.7,0.2,0.7,0.7v42.6h-10c-0.3,0-0.5-0.1-0.8-0.2c-0.2-0.1-0.5-0.6-1-1.3
			c-1.7-2.9-3.1-5.6-4.5-8.1c-1.3-2.5-2.6-4.9-3.9-7.3s-2.5-4.9-3.9-7.5h-1.1c0.6,2.6,1,4.7,1.2,6.4c0.2,1.7,0.4,3.2,0.5,4.5
			s0.1,2.5,0.1,3.6V139.3z"/>
	</g>
	<g id="XMLID_53_">
		<line id="XMLID_56_" class="st3" x1="71.6" y1="168.4" x2="196.4" y2="25.2"/>
		<circle id="XMLID_55_" class="st4" cx="71.6" cy="168.4" r="7.4"/>
		<circle id="XMLID_54_" class="st4" cx="196.6" cy="25.4" r="7.4"/>
	</g>
	<g id="XMLID_15_">
		<defs>
			<polygon id="XMLID_16_" points="196.2,24.7 71.6,168 11.4,168 11.4,25 		"/>
		</defs>
		<clipPath id="XMLID_95_">
			<use xlink:href="#XMLID_16_"  style="overflow:visible;"/>
		</clipPath>
		<g id="XMLID_17_" class="st5">
			<path id="XMLID_49_" class="st6" d="M50.4,91.1H31.5c-0.5,0-0.7-0.2-0.7-0.7V58h-1.5c-0.5,0-0.7-0.2-0.7-0.7v-9.5H50
				c4.2,0,7.3,0.9,9.4,2.8s3.1,4.3,3.1,7.1v1.3c0,2.5-0.7,4.5-2.1,6.2c-1.4,1.6-3.3,2.7-5.7,3.2v1.4c2.5,0.4,4.5,1.3,5.9,2.8
				c1.4,1.4,2.2,3.6,2.2,6.4v1.3c0,3.5-1.1,6.1-3.3,8C57.2,90.2,54.2,91.1,50.4,91.1z M46.6,58h-3.3v7.2h3.5c2.3,0,3.4-1,3.4-3.1V61
				c0-0.9-0.2-1.7-0.7-2.2C48.9,58.3,48,58,46.6,58z M43.3,81h3.2c1.3,0,2.2-0.3,2.8-0.8C49.8,79.7,50,79,50,78v-1.4
				c0-1-0.3-1.7-0.8-2.2s-1.5-0.7-2.8-0.7h-3.1V81z"/>
			<path id="XMLID_47_" class="st6" d="M89.4,91.1H75.8c-0.5,0-0.7-0.2-0.7-0.7V77c-0.7-1.8-1.6-3.9-2.6-6.2c-1-2.4-2.1-4.8-3.2-7.5
				c-1.1-2.6-2.2-5.3-3.3-7.9c-1.1-2.6-2.1-5.2-3.1-7.5h13.4c0.6,0,1.1,0.4,1.3,1.1c0.9,3.5,1.7,6.9,2.4,10.1c0.7,3.3,1.2,6.3,1.6,9
				h1.4c0.4-2.9,0.9-6,1.7-9.5c0.7-3.4,1.6-7,2.6-10.8h13c0.9,0,1.1,0.4,0.8,1.3c-1.8,4.5-3.7,9.1-5.8,13.9c-2,4.8-4,9.5-6,14.1V91.1
				z"/>
			<path id="XMLID_43_" class="st6" d="M125.3,91.1h-18.9c-0.5,0-0.7-0.2-0.7-0.7V58h-1.5c-0.5,0-0.7-0.2-0.7-0.7v-9.5h21.3
				c4.2,0,7.3,0.9,9.4,2.8s3.1,4.3,3.1,7.1v1.3c0,2.5-0.7,4.5-2.1,6.2c-1.4,1.6-3.3,2.7-5.7,3.2v1.4c2.5,0.4,4.5,1.3,5.9,2.8
				c1.4,1.4,2.2,3.6,2.2,6.4v1.3c0,3.5-1.1,6.1-3.3,8C132.1,90.2,129.1,91.1,125.3,91.1z M121.5,58h-3.3v7.2h3.5c2.3,0,3.4-1,3.4-3.1
				V61c0-0.9-0.2-1.7-0.7-2.2C123.8,58.3,122.8,58,121.5,58z M118.2,81h3.2c1.3,0,2.2-0.3,2.8-0.8c0.5-0.5,0.8-1.3,0.8-2.3v-1.4
				c0-1-0.3-1.7-0.8-2.2s-1.5-0.7-2.8-0.7h-3.1V81z"/>
			<path id="XMLID_40_" class="st6" d="M152.2,91.1h-11.6c-0.1,0-0.3-0.1-0.4-0.2s-0.2-0.3-0.2-0.6c0.6-2.9,1.3-6.1,2.1-9.8
				c0.8-3.6,1.6-7.4,2.4-11.3c0.8-3.9,1.6-7.7,2.4-11.4c0.8-3.7,1.5-7,2.1-10.1h19.4c0.4,0,0.6,0.2,0.7,0.7
				c1.2,5.2,2.3,10.7,3.6,16.4c1.2,5.7,2.5,11.5,3.7,17.6c0.3,1.4,0.6,2.8,0.9,4.3c0.3,1.4,0.6,2.9,0.9,4.4H167
				c-0.4,0-0.7-0.1-0.8-0.2c-0.1-0.2-0.3-0.6-0.5-1.4c-0.2-1.1-0.5-2.2-0.7-3.3c-0.2-1.1-0.4-2.1-0.6-3.2h-10.6
				c-0.2,1.3-0.5,2.6-0.8,3.9C152.7,88.4,152.5,89.7,152.2,91.1z M158.4,57.8c-0.3,2.4-0.7,4.9-1.2,7.5c-0.5,2.6-0.9,5.3-1.5,8.1h6.6
				c-0.5-2.8-1-5.5-1.5-8.1c-0.5-2.6-0.8-5.1-1.2-7.5H158.4z"/>
			<path id="XMLID_38_" class="st6" d="M193.6,91.1h-11.3c-0.5,0-0.7-0.2-0.7-0.7V47.8H192c0.5,0,0.9,0.1,1.2,0.2
				c0.2,0.1,0.6,0.6,1,1.4c2.1,4,4.1,7.7,5.9,11.2c1.8,3.5,3.7,7.2,5.7,11h1.2c-0.7-2.5-1.2-4.6-1.5-6.3c-0.3-1.7-0.5-3.2-0.6-4.6
				c-0.1-1.3-0.2-2.7-0.2-4.2v-8.8h11.7c0.5,0,0.7,0.2,0.7,0.7v42.6h-10c-0.3,0-0.5-0.1-0.8-0.2c-0.2-0.1-0.5-0.6-1-1.3
				c-1.7-2.9-3.1-5.6-4.5-8.1c-1.3-2.5-2.6-4.9-3.9-7.3s-2.5-4.9-3.9-7.5h-1.1c0.6,2.6,1,4.7,1.2,6.4c0.2,1.7,0.4,3.2,0.5,4.5
				c0.1,1.3,0.1,2.5,0.1,3.6V91.1z"/>
			<path id="XMLID_36_" class="st6" d="M223.3,91.1c-0.5,0-0.7-0.2-0.7-0.7v-32h-1.5c-0.5,0-0.7-0.2-0.7-0.7v-10h30.1
				c0.5,0,0.7,0.2,0.7,0.7v10h-16v6.1h11.6c0.5,0,0.7,0.2,0.7,0.7v9h-12.3v6.2h15.3c0.5,0,0.7,0.2,0.7,0.7v10H223.3z"/>
			<path id="XMLID_34_" class="st6" d="M254.9,66.8h21.7c0.5,0,0.7,0.2,0.7,0.7v11h-21.7c-0.5,0-0.7-0.2-0.7-0.7V66.8z"/>
			<path id="XMLID_32_" class="st6" d="M41.8,94.7c3.6,0,6.5,0.4,8.9,1.1c2.3,0.7,3.8,1.4,4.5,2c0.2,0.2,0.4,0.6,0.4,1.1v9.9H45.2
				c-0.4,0-0.6-0.2-0.6-0.7v-2.6c-0.7-0.1-1.6-0.2-2.5-0.2c-1.7,0-3.1,0.2-4.2,0.5c-1.1,0.4-1.6,1.1-1.6,2.3v0.9
				c0,0.7,0.2,1.3,0.6,1.8c0.4,0.5,1.3,0.8,2.8,1.2l6.2,1.5c2.8,0.7,5,1.5,6.6,2.4c1.5,0.9,2.6,2.2,3.2,3.7c0.6,1.5,0.9,3.3,0.9,5.4
				v3.2c0,4.1-1.6,7.2-4.7,9.2s-7.5,3.1-12.9,3.1c-2.3,0-4.4-0.2-6.4-0.5c-2-0.3-3.7-0.7-5.1-1.2s-2.4-1-2.9-1.5
				c-0.2-0.2-0.2-0.4-0.2-0.7v-10.6h1.2c2,1.2,4.1,2,6.3,2.6c2.2,0.6,4.7,0.9,7.6,0.9c2.1,0,3.6-0.2,4.3-0.7s1.1-1.1,1.1-1.7v-1.2
				c0-0.5-0.2-1-0.6-1.5c-0.4-0.5-1.3-0.9-2.8-1.2l-5.7-1.4c-3.3-0.8-5.7-1.7-7.3-2.8c-1.6-1.1-2.7-2.4-3.2-3.9
				c-0.5-1.5-0.7-3.1-0.7-4.8v-2.9c0-2.4,0.7-4.6,2.1-6.5c1.4-1.9,3.4-3.3,6-4.4S38.2,94.7,41.8,94.7z"/>
			<path id="XMLID_30_" class="st6" d="M82.4,139.3H70.5c-0.5,0-0.7-0.2-0.7-0.7v-31.2h-9.7c-0.5,0-0.7-0.2-0.7-0.7V96h32.7
				c0.5,0,0.7,0.2,0.7,0.7v10.8H82.4V139.3z"/>
			<path id="XMLID_27_" class="st6" d="M110.2,139.3H98.3c-0.5,0-0.7-0.2-0.7-0.7V107h-1.5c-0.5,0-0.7-0.2-0.7-0.7V96H115
				c5.1,0,8.8,1.1,11.2,3.4c2.3,2.3,3.5,5.7,3.5,10.1v2.9c0,2.7-0.5,5-1.5,7c-1,2-2.4,3.5-4.2,4.6c0.3,0.5,0.6,1,0.9,1.5
				c0.3,0.5,0.6,1,0.9,1.5c0.3,0.5,0.6,0.8,0.8,1.1c0.3,0.2,0.6,0.3,1,0.3h2.5V139c0,0.5-0.2,0.7-0.7,0.7h-3.5
				c-1.7,0-3.1-0.1-4.2-0.4c-1.1-0.3-2-0.8-2.8-1.5c-0.8-0.8-1.5-1.9-2.3-3.4c-0.7-1.4-1.5-2.8-2.2-4.2c-0.7-1.4-1.4-2.8-2.1-4.1h-2
				V139.3z M113.1,107h-3v9.2h2.8c1.4,0,2.4-0.3,3-0.8s0.8-1.5,0.8-2.9v-2c0-1.3-0.3-2.2-0.9-2.7c-0.3-0.3-0.7-0.5-1.1-0.6
				C114.2,107,113.7,107,113.1,107z"/>
			<path id="XMLID_25_" class="st6" d="M160,139.3h-24.9c-0.5,0-0.7-0.2-0.7-0.7v-10.8h6.6v-20.4h-5.9c-0.5,0-0.7-0.2-0.7-0.7V96
				h24.9c0.5,0,0.7,0.2,0.7,0.7v10.8h-6.6v20.4h5.9c0.5,0,0.7,0.2,0.7,0.7V139.3z"/>
			<path id="XMLID_22_" class="st6" d="M200.7,124.2c0,4.7-1.3,8.3-3.8,11c-2.6,2.7-6.1,4-10.5,4h-20c-0.5,0-0.7-0.2-0.7-0.7v-31.4
				h-1.5c-0.5,0-0.7-0.2-0.7-0.7V96H186c4.8,0,8.5,1.3,11,4c2.5,2.7,3.8,6.3,3.8,11V124.2z M178.3,128.1h5.8c1.6,0,2.7-0.3,3.2-1.1
				s0.9-1.8,0.9-3.4v-12.3c0-1.6-0.3-2.7-1-3.3c-0.5-0.5-1.5-0.8-2.8-0.8h-6.1V128.1z"/>
			<path id="XMLID_20_" class="st6" d="M206.7,139.3c-0.5,0-0.7-0.2-0.7-0.7v-32h-1.5c-0.5,0-0.7-0.2-0.7-0.7V96H234
				c0.5,0,0.7,0.2,0.7,0.7v10h-16v6.1h11.6c0.5,0,0.7,0.2,0.7,0.7v9h-12.3v6.2H234c0.5,0,0.7,0.2,0.7,0.7v10H206.7z"/>
			<path id="XMLID_18_" class="st6" d="M251.4,139.3h-11.3c-0.5,0-0.7-0.2-0.7-0.7V96h10.3c0.5,0,0.9,0.1,1.2,0.2
				c0.2,0.1,0.6,0.6,1,1.4c2.1,4,4.1,7.7,5.9,11.2c1.8,3.5,3.7,7.2,5.7,11h1.2c-0.7-2.5-1.2-4.6-1.5-6.3c-0.3-1.7-0.5-3.2-0.6-4.6
				c-0.1-1.3-0.2-2.7-0.2-4.2V96H274c0.5,0,0.7,0.2,0.7,0.7v42.6h-10c-0.3,0-0.5-0.1-0.8-0.2c-0.2-0.1-0.5-0.6-1-1.3
				c-1.7-2.9-3.1-5.6-4.5-8.1c-1.3-2.5-2.6-4.9-3.9-7.3s-2.5-4.9-3.9-7.5h-1.1c0.6,2.6,1,4.7,1.2,6.4c0.2,1.7,0.4,3.2,0.5,4.5
				s0.1,2.5,0.1,3.6V139.3z"/>
		</g>
	</g>
</svg>
