<!-- Icon adapted from original by matfine https://thenounproject.com/matfine/, licensed under creative commons -->
<svg version="1.2" baseProfile="tiny"
	 xmlns="http://www.w3.org/2000/svg" xmlns:xlink="http://www.w3.org/1999/xlink" xmlns:a="http://ns.adobe.com/AdobeSVGViewerExtensions/3.0/"
	 x="0px" y="0px" width="230.8px" height="230.8px" viewBox="0 0 230.8 230.8" xml:space="preserve">
<defs>
</defs>
<g>
	<g>
		<g>
			<path fill="#2255E9" d="M110.1,124.4h-3.4c-1.3,0-2.3,1-2.3,2.3s1,2.3,2.3,2.3h3.4c1.3,0,2.3-1,2.3-2.3S111.4,124.4,110.1,124.4z
				"/>
		</g>
		<g>
			<path fill="#2255E9" d="M96,124.4H55c-5.6,0-10.2-4.6-10.2-10.2c0-1.3-1-2.3-2.3-2.3c-1.3,0-2.3,1-2.3,2.3
				c0,8.2,6.6,14.8,14.8,14.8h41c1.3,0,2.3-1,2.3-2.3S97.3,124.4,96,124.4z"/>
		</g>
		<g>
			<path fill="#2255E9" d="M174.9,68.8c-2.6,0-5.3,0.3-7.9,0.9c-7.7-22.5-29.2-38-53.1-38c-29.8,0-54.4,23.6-56,53.1
				c-17.7-1.8-32.6,12.2-32.6,29.5c0,16.3,13.3,29.6,29.6,29.6h2l-5.7,12.7c-0.5,1.2,0,2.5,1.2,3c0.3,0.1,0.6,0.2,0.9,0.2
				c0.9,0,1.7-0.5,2.1-1.4l6.5-14.6h16.4l-4.5,10.1c-0.5,1.2,0,2.5,1.2,3c0.3,0.1,0.6,0.2,0.9,0.2c0.9,0,1.7-0.5,2.1-1.4l5.3-12
				h16.4l-1.4,3.1c-0.5,1.2,0,2.5,1.2,3c0.3,0.1,0.6,0.2,0.9,0.2c0.9,0,1.7-0.5,2.1-1.4l2.2-5h16.4l-14.9,33.5c-0.5,1.2,0,2.5,1.2,3
				c0.3,0.1,0.6,0.2,0.9,0.2c0.9,0,1.7-0.5,2.1-1.4l15.7-35.3h16.4l-4.5,10.1c-0.5,1.2,0,2.5,1.2,3c0.3,0.1,0.6,0.2,0.9,0.2
				c0.9,0,1.7-0.5,2.1-1.4l5.3-12H164l-1.4,3.1c-0.5,1.2,0,2.5,1.2,3c0.3,0.1,0.6,0.2,0.9,0.2c0.9,0,1.7-0.5,2.1-1.4l2.2-5h6
				c20.7,0,37.5-16.8,37.5-37.5S195.6,68.8,174.9,68.8z M174.9,139.3H171l0,0c0.5-1.2,0-2.5-1.2-3c-1.1-0.5-2.5,0-3,1.2l-0.8,1.9
				h-16.4l0,0c0.5-1.2,0-2.5-1.2-3c-1.2-0.5-2.5,0-3,1.2l-0.8,1.9h-16.4l0,0c0.5-1.2,0-2.5-1.2-3c-1.2-0.5-2.5,0-3,1.2l-0.8,1.9
				h-16.4l0,0c0.5-1.2,0-2.5-1.2-3c-1.2-0.5-2.5,0-3,1.2l-0.8,1.9H85.4l0,0c0.5-1.2,0-2.5-1.2-3c-1.2-0.5-2.5,0-3,1.2l-0.8,1.9H64
				l0,0c0.5-1.2,0-2.5-1.2-3c-1.2-0.5-2.5,0-3,1.2l-0.8,1.9h-4c-13.8,0-25.1-11.2-25.1-25.1S41.2,89.1,55,89.1
				c1.5,0,3.1,0.2,4.7,0.5c0.7,0.1,1.4,0,1.9-0.5c0.5-0.4,0.8-1.1,0.8-1.7c0.2-28.2,23.3-51.2,51.5-51.2c22.6,0,42.9,15.2,49.4,36.9
				c0.4,1.2,1.6,1.9,2.8,1.5c3-0.8,5.9-1.2,8.8-1.2c18.2,0,33,14.8,33,33S193.1,139.3,174.9,139.3z"/>
		</g>
		<g>
			<path fill="#2255E9" d="M49.5,166.1c-1.2-0.5-2.5,0-3,1.2l-2.5,5.6c-0.5,1.2,0,2.5,1.2,3c0.3,0.1,0.6,0.2,0.9,0.2
				c0.9,0,1.7-0.5,2.1-1.4l2.5-5.6C51.2,168,50.7,166.7,49.5,166.1z"/>
		</g>
		<g>
			<path fill="#2255E9" d="M91.1,169c-1.1-0.5-2.5,0-3,1.2l-1.1,2.5c-0.5,1.2,0,2.5,1.2,3c0.3,0.1,0.6,0.2,0.9,0.2
				c0.9,0,1.7-0.5,2.1-1.4l1.1-2.5C92.8,170.8,92.2,169.5,91.1,169z"/>
		</g>
		<g>
			<path fill="#2255E9" d="M96.9,155.8c-1.2-0.5-2.5,0-3,1.2l-1.9,4.4c-0.5,1.2,0,2.5,1.2,3c0.3,0.1,0.6,0.2,0.9,0.2
				c0.9,0,1.7-0.5,2.1-1.4l1.9-4.4C98.6,157.6,98.1,156.3,96.9,155.8z"/>
		</g>
		<g>
			<path fill="#2255E9" d="M103.5,189.2c-1.2-0.5-2.5,0-3,1.2l-1.6,3.5c-0.5,1.2,0,2.5,1.2,3c0.3,0.1,0.6,0.2,0.9,0.2
				c0.9,0,1.7-0.5,2.1-1.4l1.6-3.5C105.2,191,104.7,189.7,103.5,189.2z"/>
		</g>
		<g>
			<path fill="#2255E9" d="M156.6,166.1c-1.1-0.5-2.5,0-3,1.2l-3.7,8.4c-0.5,1.2,0,2.5,1.2,3c0.3,0.1,0.6,0.2,0.9,0.2
				c0.9,0,1.7-0.5,2.1-1.4l3.7-8.4C158.2,168,157.7,166.6,156.6,166.1z"/>
		</g>
		<g>
			<path fill="#2255E9" d="M161.1,156c-1.1-0.5-2.5,0-3,1.2l-0.8,1.9c-0.5,1.2,0,2.5,1.2,3c0.3,0.1,0.6,0.2,0.9,0.2
				c0.9,0,1.7-0.5,2.1-1.4l0.8-1.9C162.7,157.9,162.2,156.6,161.1,156z"/>
		</g>
	</g>
	<g>
		<path fill="#2255E9" d="M115.4,230.8C51.8,230.8,0,179,0,115.4S51.8,0,115.4,0s115.4,51.8,115.4,115.4S179,230.8,115.4,230.8z
			 M115.4,4.5C54.2,4.5,4.5,54.2,4.5,115.4s49.7,110.9,110.9,110.9s110.9-49.7,110.9-110.9S176.5,4.5,115.4,4.5z"/>
	</g>
</g>
</svg>
