<svg version="1.1"
	 xmlns="http://www.w3.org/2000/svg" xmlns:xlink="http://www.w3.org/1999/xlink"
	 x="0px" y="0px" width="301.4px" height="188.4px" viewBox="0 0 301.4 188.4" style="enable-background:new 0 0 301.4 188.4;"
	 xml:space="preserve">
<style type="text/css">
	.st0{fill:#BFE8FC;}
	.st1{fill:#74A7EF;}
	.st2{fill:#5888E5;}
	.st3{fill:#3C6ADA;}
	.st4{fill:#204BD0;}
</style>
	<g id="XMLID_15_">
		<g id="XMLID_106_">
			<rect id="XMLID_107_" class="st0" width="301.4" height="188.4"/>
		</g>
		<g id="XMLID_16_">
			<g id="XMLID_62_">
				<g id="XMLID_99_">
					<path id="XMLID_100_" class="st1" d="M58,79.4h-9v-9h9V79.4z M49,64.4V53.1L39,41.3L29,53.1v11.3H15v21h13.7h10.3h10.3H63v-21
						H49z M38.9,50.6c2.5,0,4.5,2,4.5,4.5s-2,4.5-4.5,4.5s-4.5-2-4.5-4.5S36.4,50.6,38.9,50.6z M29,79.4h-9v-9h9V79.4z M44,79.4h-5.1
						H34v-9h4.9H44V79.4z"/>
				</g>
				<path id="XMLID_93_" class="st2" d="M132,79.4h-9v-9h9V79.4z M123,64.4V53.1l-10-11.8l-10,11.8v11.3H89v21h13.7h10.3h10.3H137
					v-21H123z M112.9,50.6c2.5,0,4.5,2,4.5,4.5s-2,4.5-4.5,4.5s-4.5-2-4.5-4.5S110.4,50.6,112.9,50.6z M103,79.4h-9v-9h9V79.4z
					 M118,79.4h-5.1H108v-9h4.9h5.1V79.4z"/>
				<path id="XMLID_87_" class="st3" d="M206,79.4h-9v-9h9V79.4z M197,64.4V53.1l-10-11.8l-10,11.8v11.3h-14v21h13.7h10.3h10.3H211
					v-21H197z M186.9,50.6c2.5,0,4.5,2,4.5,4.5s-2,4.5-4.5,4.5s-4.5-2-4.5-4.5S184.4,50.6,186.9,50.6z M177,79.4h-9v-9h9V79.4z
					 M192,79.4h-5.1H182v-9h4.9h5.1V79.4z"/>
				<g id="XMLID_80_">
					<path id="XMLID_81_" class="st4" d="M280,79.4h-9v-9h9V79.4z M271,64.4V53.1l-10-11.8l-10,11.8v11.3h-14v21h13.7h10.3h10.3H285
						v-21H271z M260.9,50.6c2.5,0,4.5,2,4.5,4.5s-2,4.5-4.5,4.5s-4.5-2-4.5-4.5S258.4,50.6,260.9,50.6z M251,79.4h-9v-9h9V79.4z
						 M266,79.4h-5.1H256v-9h4.9h5.1V79.4z"/>
				</g>
			</g>
			<circle id="XMLID_61_" class="st4" cx="103.6" cy="110" r="5"/>
			<circle id="XMLID_60_" class="st4" cx="176.3" cy="106.5" r="5"/>
			<circle id="XMLID_59_" class="st4" cx="38.7" cy="112.8" r="5"/>
			<circle id="XMLID_58_" class="st4" cx="265.3" cy="121" r="5"/>
			<circle id="XMLID_57_" class="st4" cx="175.9" cy="116.9" r="5"/>
			<circle id="XMLID_56_" class="st4" cx="265.7" cy="110.4" r="5"/>
			<circle id="XMLID_55_" class="st4" cx="255.2" cy="108.5" r="5"/>
			<circle id="XMLID_54_" class="st4" cx="271.4" cy="130.2" r="5"/>
			<circle id="XMLID_53_" class="st4" cx="193.5" cy="105" r="5"/>
			<circle id="XMLID_52_" class="st3" cx="119.9" cy="121.4" r="5"/>
			<circle id="XMLID_51_" class="st3" cx="111.6" cy="130.3" r="5"/>
			<circle id="XMLID_50_" class="st3" cx="131.8" cy="128.6" r="5"/>
			<circle id="XMLID_49_" class="st2" cx="41.7" cy="122.8" r="5"/>
			<circle id="XMLID_48_" class="st2" cx="19.7" cy="113.8" r="5"/>
			<circle id="XMLID_47_" class="st2" cx="48.7" cy="106.8" r="5"/>
			<circle id="XMLID_46_" class="st3" cx="29.7" cy="118.8" r="5"/>
			<circle id="XMLID_45_" class="st3" cx="57.7" cy="125.8" r="5"/>
			<circle id="XMLID_44_" class="st3" cx="258.5" cy="130.2" r="5"/>
			<circle id="XMLID_43_" class="st3" cx="275.9" cy="108.7" r="5"/>
			<circle id="XMLID_42_" class="st3" cx="245.6" cy="112.4" r="5"/>
			<circle id="XMLID_41_" class="st4" cx="131.1" cy="117.8" r="5"/>
			<circle id="XMLID_40_" class="st4" cx="254.8" cy="119.1" r="5"/>
			<circle id="XMLID_39_" class="st4" cx="276" cy="120.1" r="5"/>
			<circle id="XMLID_38_" class="st3" cx="167.1" cy="111" r="5"/>
			<circle id="XMLID_37_" class="st3" cx="207.2" cy="117.9" r="5"/>
			<circle id="XMLID_36_" class="st3" cx="196" cy="126.1" r="5"/>
			<circle id="XMLID_35_" class="st3" cx="185" cy="123.8" r="5"/>
			<circle id="XMLID_34_" class="st3" cx="186.3" cy="113.1" r="5"/>
			<circle id="XMLID_33_" class="st3" cx="182.7" cy="134.8" r="5"/>
			<circle id="XMLID_32_" class="st2" cx="95.5" cy="117.5" r="5"/>
			<circle id="XMLID_31_" class="st2" cx="174.6" cy="127.6" r="5"/>
			<circle id="XMLID_30_" class="st2" cx="247.6" cy="127.6" r="5"/>
			<circle id="XMLID_29_" class="st2" cx="122.1" cy="132.3" r="5"/>
			<circle id="XMLID_28_" class="st2" cx="109.5" cy="119.3" r="5"/>
			<circle id="XMLID_27_" class="st2" cx="204.4" cy="107.3" r="5"/>
			<circle id="XMLID_26_" class="st2" cx="125.1" cy="108.5" r="5"/>
			<circle id="XMLID_25_" class="st2" cx="114.3" cy="109.2" r="5"/>
			<circle id="XMLID_24_" class="st2" cx="101.4" cy="126.8" r="5"/>
			<circle id="XMLID_23_" class="st1" cx="28.7" cy="107.8" r="5"/>
			<circle id="XMLID_22_" class="st1" cx="50.7" cy="117.8" r="5"/>
			<circle id="XMLID_21_" class="st1" cx="39.7" cy="137.8" r="5"/>
			<circle id="XMLID_20_" class="st1" cx="32.7" cy="128.8" r="5"/>
			<circle id="XMLID_19_" class="st1" cx="48.7" cy="130.8" r="5"/>
			<circle id="XMLID_18_" class="st1" cx="197.3" cy="115.4" r="5"/>
			<circle id="XMLID_17_" class="st1" cx="21.7" cy="126.8" r="5"/>
		</g>
	</g>
</svg>
